<mxfile host="Electron" modified="2025-06-22T11:06:07.238Z" agent="Mozilla/5.0 (Windows NT 10.0; Win64; x64) AppleWebKit/537.36 (KHTML, like Gecko) draw.io/22.1.16 Chrome/120.0.6099.109 Electron/28.1.0 Safari/537.36" etag="5r1ZvaP7cFnDfLv8lCfN" version="22.1.16" type="device" pages="3">
  <diagram name="Page-1" id="CYwcie-8Nj_R-pdrqW6t">
    <mxGraphModel dx="1434" dy="1944" grid="1" gridSize="10" guides="1" tooltips="1" connect="1" arrows="1" fold="1" page="1" pageScale="1" pageWidth="850" pageHeight="1100" math="0" shadow="0">
      <root>
        <mxCell id="0" />
        <mxCell id="1" parent="0" />
        <mxCell id="ENa72j89gGyk0aKRsWgS-13" style="edgeStyle=orthogonalEdgeStyle;rounded=0;orthogonalLoop=1;jettySize=auto;html=1;exitX=1;exitY=1;exitDx=0;exitDy=0;exitPerimeter=0;entryX=1;entryY=0.5;entryDx=0;entryDy=0;" edge="1" parent="1" source="ENa72j89gGyk0aKRsWgS-1" target="ENa72j89gGyk0aKRsWgS-11">
          <mxGeometry relative="1" as="geometry" />
        </mxCell>
        <mxCell id="ENa72j89gGyk0aKRsWgS-1" value="" style="verticalLabelPosition=bottom;shadow=0;dashed=0;align=center;html=1;verticalAlign=top;shape=mxgraph.electrical.transistors.nmos;pointerEvents=1;" vertex="1" parent="1">
          <mxGeometry x="700" y="690" width="60" height="100" as="geometry" />
        </mxCell>
        <mxCell id="ENa72j89gGyk0aKRsWgS-2" value="" style="verticalLabelPosition=bottom;shadow=0;dashed=0;align=center;html=1;verticalAlign=top;shape=mxgraph.electrical.transistors.nmos;pointerEvents=1;" vertex="1" parent="1">
          <mxGeometry x="700" y="410" width="60" height="100" as="geometry" />
        </mxCell>
        <mxCell id="ENa72j89gGyk0aKRsWgS-14" style="edgeStyle=orthogonalEdgeStyle;rounded=0;orthogonalLoop=1;jettySize=auto;html=1;exitX=1;exitY=1;exitDx=0;exitDy=0;exitPerimeter=0;entryX=1;entryY=0;entryDx=0;entryDy=0;" edge="1" parent="1" source="ENa72j89gGyk0aKRsWgS-3" target="ENa72j89gGyk0aKRsWgS-11">
          <mxGeometry relative="1" as="geometry" />
        </mxCell>
        <mxCell id="ENa72j89gGyk0aKRsWgS-3" value="" style="verticalLabelPosition=bottom;shadow=0;dashed=0;align=center;html=1;verticalAlign=top;shape=mxgraph.electrical.transistors.nmos;pointerEvents=1;" vertex="1" parent="1">
          <mxGeometry x="530" y="530" width="60" height="100" as="geometry" />
        </mxCell>
        <mxCell id="ENa72j89gGyk0aKRsWgS-12" style="edgeStyle=orthogonalEdgeStyle;rounded=0;orthogonalLoop=1;jettySize=auto;html=1;exitX=1;exitY=1;exitDx=0;exitDy=0;exitPerimeter=0;entryX=0;entryY=0.5;entryDx=0;entryDy=0;" edge="1" parent="1" source="ENa72j89gGyk0aKRsWgS-4" target="ENa72j89gGyk0aKRsWgS-11">
          <mxGeometry relative="1" as="geometry" />
        </mxCell>
        <mxCell id="ENa72j89gGyk0aKRsWgS-4" value="" style="verticalLabelPosition=bottom;shadow=0;dashed=0;align=center;html=1;verticalAlign=top;shape=mxgraph.electrical.transistors.nmos;pointerEvents=1;" vertex="1" parent="1">
          <mxGeometry x="395" y="690" width="60" height="100" as="geometry" />
        </mxCell>
        <mxCell id="ENa72j89gGyk0aKRsWgS-5" value="" style="verticalLabelPosition=bottom;shadow=0;dashed=0;align=center;html=1;verticalAlign=top;shape=mxgraph.electrical.transistors.nmos;pointerEvents=1;" vertex="1" parent="1">
          <mxGeometry x="395" y="390" width="60" height="100" as="geometry" />
        </mxCell>
        <mxCell id="ENa72j89gGyk0aKRsWgS-6" value="" style="verticalLabelPosition=bottom;shadow=0;dashed=0;align=center;html=1;verticalAlign=top;shape=mxgraph.electrical.transistors.nmos;pointerEvents=1;" vertex="1" parent="1">
          <mxGeometry x="395" y="530" width="60" height="100" as="geometry" />
        </mxCell>
        <mxCell id="ENa72j89gGyk0aKRsWgS-7" style="edgeStyle=orthogonalEdgeStyle;rounded=0;orthogonalLoop=1;jettySize=auto;html=1;exitX=1;exitY=1;exitDx=0;exitDy=0;exitPerimeter=0;entryX=1;entryY=0;entryDx=0;entryDy=0;entryPerimeter=0;" edge="1" parent="1" source="ENa72j89gGyk0aKRsWgS-5" target="ENa72j89gGyk0aKRsWgS-6">
          <mxGeometry relative="1" as="geometry" />
        </mxCell>
        <mxCell id="ENa72j89gGyk0aKRsWgS-8" style="edgeStyle=orthogonalEdgeStyle;rounded=0;orthogonalLoop=1;jettySize=auto;html=1;exitX=1;exitY=1;exitDx=0;exitDy=0;exitPerimeter=0;entryX=1;entryY=0;entryDx=0;entryDy=0;entryPerimeter=0;" edge="1" parent="1" source="ENa72j89gGyk0aKRsWgS-6" target="ENa72j89gGyk0aKRsWgS-4">
          <mxGeometry relative="1" as="geometry" />
        </mxCell>
        <mxCell id="ENa72j89gGyk0aKRsWgS-9" value="" style="verticalLabelPosition=bottom;shadow=0;dashed=0;align=center;html=1;verticalAlign=top;shape=mxgraph.electrical.transistors.nmos;pointerEvents=1;" vertex="1" parent="1">
          <mxGeometry x="530" y="890" width="60" height="100" as="geometry" />
        </mxCell>
        <mxCell id="ENa72j89gGyk0aKRsWgS-11" value="" style="ellipse;whiteSpace=wrap;html=1;aspect=fixed;" vertex="1" parent="1">
          <mxGeometry x="580" y="820" width="10" height="10" as="geometry" />
        </mxCell>
        <mxCell id="ENa72j89gGyk0aKRsWgS-17" style="edgeStyle=orthogonalEdgeStyle;rounded=0;orthogonalLoop=1;jettySize=auto;html=1;exitX=0.5;exitY=1;exitDx=0;exitDy=0;entryX=1;entryY=0;entryDx=0;entryDy=0;entryPerimeter=0;" edge="1" parent="1" source="ENa72j89gGyk0aKRsWgS-11" target="ENa72j89gGyk0aKRsWgS-9">
          <mxGeometry relative="1" as="geometry" />
        </mxCell>
        <mxCell id="ENa72j89gGyk0aKRsWgS-18" value="" style="pointerEvents=1;verticalLabelPosition=bottom;shadow=0;dashed=0;align=center;html=1;verticalAlign=top;shape=mxgraph.electrical.signal_sources.signal_ground;" vertex="1" parent="1">
          <mxGeometry x="570" y="1000" width="45" height="30" as="geometry" />
        </mxCell>
        <mxCell id="ENa72j89gGyk0aKRsWgS-19" style="edgeStyle=orthogonalEdgeStyle;rounded=0;orthogonalLoop=1;jettySize=auto;html=1;exitX=1;exitY=1;exitDx=0;exitDy=0;exitPerimeter=0;entryX=0.5;entryY=0;entryDx=0;entryDy=0;entryPerimeter=0;" edge="1" parent="1" source="ENa72j89gGyk0aKRsWgS-9" target="ENa72j89gGyk0aKRsWgS-18">
          <mxGeometry relative="1" as="geometry" />
        </mxCell>
        <mxCell id="ENa72j89gGyk0aKRsWgS-20" style="edgeStyle=orthogonalEdgeStyle;rounded=0;orthogonalLoop=1;jettySize=auto;html=1;exitX=1;exitY=1;exitDx=0;exitDy=0;exitPerimeter=0;entryX=1;entryY=0;entryDx=0;entryDy=0;entryPerimeter=0;" edge="1" parent="1" source="ENa72j89gGyk0aKRsWgS-2" target="ENa72j89gGyk0aKRsWgS-1">
          <mxGeometry relative="1" as="geometry" />
        </mxCell>
        <mxCell id="ENa72j89gGyk0aKRsWgS-21" value="" style="ellipse;whiteSpace=wrap;html=1;aspect=fixed;" vertex="1" parent="1">
          <mxGeometry x="580" y="330" width="10" height="10" as="geometry" />
        </mxCell>
        <mxCell id="ENa72j89gGyk0aKRsWgS-22" style="edgeStyle=orthogonalEdgeStyle;rounded=0;orthogonalLoop=1;jettySize=auto;html=1;exitX=0;exitY=0.5;exitDx=0;exitDy=0;entryX=1;entryY=0;entryDx=0;entryDy=0;entryPerimeter=0;" edge="1" parent="1" source="ENa72j89gGyk0aKRsWgS-21" target="ENa72j89gGyk0aKRsWgS-5">
          <mxGeometry relative="1" as="geometry" />
        </mxCell>
        <mxCell id="ENa72j89gGyk0aKRsWgS-23" style="edgeStyle=orthogonalEdgeStyle;rounded=0;orthogonalLoop=1;jettySize=auto;html=1;exitX=0.5;exitY=1;exitDx=0;exitDy=0;entryX=1;entryY=0;entryDx=0;entryDy=0;entryPerimeter=0;" edge="1" parent="1" source="ENa72j89gGyk0aKRsWgS-21" target="ENa72j89gGyk0aKRsWgS-3">
          <mxGeometry relative="1" as="geometry" />
        </mxCell>
        <mxCell id="ENa72j89gGyk0aKRsWgS-24" style="edgeStyle=orthogonalEdgeStyle;rounded=0;orthogonalLoop=1;jettySize=auto;html=1;exitX=1;exitY=0.5;exitDx=0;exitDy=0;entryX=1;entryY=0;entryDx=0;entryDy=0;entryPerimeter=0;" edge="1" parent="1" source="ENa72j89gGyk0aKRsWgS-21" target="ENa72j89gGyk0aKRsWgS-2">
          <mxGeometry relative="1" as="geometry" />
        </mxCell>
        <mxCell id="ENa72j89gGyk0aKRsWgS-25" value="V&lt;sub&gt;dd&lt;/sub&gt;" style="verticalLabelPosition=top;verticalAlign=bottom;shape=mxgraph.electrical.signal_sources.vdd;shadow=0;dashed=0;align=center;strokeWidth=1;fontSize=24;html=1;flipV=1;" vertex="1" parent="1">
          <mxGeometry x="580" y="-530" width="60" height="40" as="geometry" />
        </mxCell>
        <mxCell id="ENa72j89gGyk0aKRsWgS-44" style="edgeStyle=orthogonalEdgeStyle;rounded=0;orthogonalLoop=1;jettySize=auto;html=1;exitX=1;exitY=1;exitDx=0;exitDy=0;exitPerimeter=0;entryX=0;entryY=1;entryDx=0;entryDy=0;" edge="1" parent="1" source="ENa72j89gGyk0aKRsWgS-26" target="ENa72j89gGyk0aKRsWgS-21">
          <mxGeometry relative="1" as="geometry">
            <Array as="points">
              <mxPoint x="540" y="330" />
              <mxPoint x="582" y="330" />
            </Array>
          </mxGeometry>
        </mxCell>
        <mxCell id="ENa72j89gGyk0aKRsWgS-26" value="" style="verticalLabelPosition=bottom;shadow=0;dashed=0;align=center;html=1;verticalAlign=top;shape=mxgraph.electrical.transistors.pmos;pointerEvents=1;" vertex="1" parent="1">
          <mxGeometry x="480" y="160" width="60" height="100" as="geometry" />
        </mxCell>
        <mxCell id="ENa72j89gGyk0aKRsWgS-45" style="edgeStyle=orthogonalEdgeStyle;rounded=0;orthogonalLoop=1;jettySize=auto;html=1;exitX=1;exitY=1;exitDx=0;exitDy=0;exitPerimeter=0;" edge="1" parent="1" source="ENa72j89gGyk0aKRsWgS-27">
          <mxGeometry relative="1" as="geometry">
            <mxPoint x="580" y="330" as="targetPoint" />
            <Array as="points">
              <mxPoint x="675" y="330" />
            </Array>
          </mxGeometry>
        </mxCell>
        <mxCell id="ENa72j89gGyk0aKRsWgS-27" value="" style="verticalLabelPosition=bottom;shadow=0;dashed=0;align=center;html=1;verticalAlign=top;shape=mxgraph.electrical.transistors.pmos;pointerEvents=1;" vertex="1" parent="1">
          <mxGeometry x="615" y="160" width="60" height="100" as="geometry" />
        </mxCell>
        <mxCell id="ENa72j89gGyk0aKRsWgS-28" value="" style="verticalLabelPosition=bottom;shadow=0;dashed=0;align=center;html=1;verticalAlign=top;shape=mxgraph.electrical.transistors.pmos;pointerEvents=1;" vertex="1" parent="1">
          <mxGeometry x="562.5" y="-10" width="60" height="100" as="geometry" />
        </mxCell>
        <mxCell id="ENa72j89gGyk0aKRsWgS-40" style="edgeStyle=orthogonalEdgeStyle;rounded=0;orthogonalLoop=1;jettySize=auto;html=1;exitX=1;exitY=1;exitDx=0;exitDy=0;exitPerimeter=0;entryX=1;entryY=0.5;entryDx=0;entryDy=0;" edge="1" parent="1" source="ENa72j89gGyk0aKRsWgS-29" target="ENa72j89gGyk0aKRsWgS-21">
          <mxGeometry relative="1" as="geometry" />
        </mxCell>
        <mxCell id="ENa72j89gGyk0aKRsWgS-29" value="" style="verticalLabelPosition=bottom;shadow=0;dashed=0;align=center;html=1;verticalAlign=top;shape=mxgraph.electrical.transistors.pmos;pointerEvents=1;" vertex="1" parent="1">
          <mxGeometry x="820" y="-10" width="60" height="100" as="geometry" />
        </mxCell>
        <mxCell id="ENa72j89gGyk0aKRsWgS-30" value="" style="verticalLabelPosition=bottom;shadow=0;dashed=0;align=center;html=1;verticalAlign=top;shape=mxgraph.electrical.transistors.pmos;pointerEvents=1;" vertex="1" parent="1">
          <mxGeometry x="365" y="-330" width="60" height="100" as="geometry" />
        </mxCell>
        <mxCell id="ENa72j89gGyk0aKRsWgS-38" style="edgeStyle=orthogonalEdgeStyle;rounded=0;orthogonalLoop=1;jettySize=auto;html=1;exitX=1;exitY=1;exitDx=0;exitDy=0;exitPerimeter=0;" edge="1" parent="1" source="ENa72j89gGyk0aKRsWgS-31">
          <mxGeometry relative="1" as="geometry">
            <mxPoint x="620" y="-10" as="targetPoint" />
            <Array as="points">
              <mxPoint x="620" y="-233" />
            </Array>
          </mxGeometry>
        </mxCell>
        <mxCell id="ENa72j89gGyk0aKRsWgS-31" value="" style="verticalLabelPosition=bottom;shadow=0;dashed=0;align=center;html=1;verticalAlign=top;shape=mxgraph.electrical.transistors.pmos;pointerEvents=1;" vertex="1" parent="1">
          <mxGeometry x="555" y="-330" width="60" height="100" as="geometry" />
        </mxCell>
        <mxCell id="ENa72j89gGyk0aKRsWgS-32" value="" style="verticalLabelPosition=bottom;shadow=0;dashed=0;align=center;html=1;verticalAlign=top;shape=mxgraph.electrical.transistors.pmos;pointerEvents=1;" vertex="1" parent="1">
          <mxGeometry x="675" y="-330" width="60" height="100" as="geometry" />
        </mxCell>
        <mxCell id="ENa72j89gGyk0aKRsWgS-33" style="edgeStyle=orthogonalEdgeStyle;rounded=0;orthogonalLoop=1;jettySize=auto;html=1;exitX=0.5;exitY=0;exitDx=0;exitDy=0;exitPerimeter=0;entryX=1;entryY=0;entryDx=0;entryDy=0;entryPerimeter=0;" edge="1" parent="1" source="ENa72j89gGyk0aKRsWgS-25" target="ENa72j89gGyk0aKRsWgS-30">
          <mxGeometry relative="1" as="geometry" />
        </mxCell>
        <mxCell id="ENa72j89gGyk0aKRsWgS-34" style="edgeStyle=orthogonalEdgeStyle;rounded=0;orthogonalLoop=1;jettySize=auto;html=1;exitX=0.5;exitY=0;exitDx=0;exitDy=0;exitPerimeter=0;entryX=1;entryY=0;entryDx=0;entryDy=0;entryPerimeter=0;" edge="1" parent="1" source="ENa72j89gGyk0aKRsWgS-25" target="ENa72j89gGyk0aKRsWgS-31">
          <mxGeometry relative="1" as="geometry" />
        </mxCell>
        <mxCell id="ENa72j89gGyk0aKRsWgS-35" style="edgeStyle=orthogonalEdgeStyle;rounded=0;orthogonalLoop=1;jettySize=auto;html=1;exitX=0.5;exitY=0;exitDx=0;exitDy=0;exitPerimeter=0;entryX=1;entryY=0;entryDx=0;entryDy=0;entryPerimeter=0;" edge="1" parent="1" source="ENa72j89gGyk0aKRsWgS-25" target="ENa72j89gGyk0aKRsWgS-32">
          <mxGeometry relative="1" as="geometry" />
        </mxCell>
        <mxCell id="ENa72j89gGyk0aKRsWgS-36" style="edgeStyle=orthogonalEdgeStyle;rounded=0;orthogonalLoop=1;jettySize=auto;html=1;exitX=0.5;exitY=0;exitDx=0;exitDy=0;exitPerimeter=0;entryX=1;entryY=0;entryDx=0;entryDy=0;entryPerimeter=0;" edge="1" parent="1" source="ENa72j89gGyk0aKRsWgS-25" target="ENa72j89gGyk0aKRsWgS-29">
          <mxGeometry relative="1" as="geometry">
            <Array as="points">
              <mxPoint x="610" y="-410" />
              <mxPoint x="880" y="-410" />
            </Array>
          </mxGeometry>
        </mxCell>
        <mxCell id="ENa72j89gGyk0aKRsWgS-37" style="edgeStyle=orthogonalEdgeStyle;rounded=0;orthogonalLoop=1;jettySize=auto;html=1;exitX=1;exitY=1;exitDx=0;exitDy=0;exitPerimeter=0;entryX=1;entryY=0;entryDx=0;entryDy=0;entryPerimeter=0;" edge="1" parent="1" source="ENa72j89gGyk0aKRsWgS-30" target="ENa72j89gGyk0aKRsWgS-28">
          <mxGeometry relative="1" as="geometry">
            <Array as="points">
              <mxPoint x="425" y="-170" />
              <mxPoint x="623" y="-170" />
            </Array>
          </mxGeometry>
        </mxCell>
        <mxCell id="ENa72j89gGyk0aKRsWgS-39" style="edgeStyle=orthogonalEdgeStyle;rounded=0;orthogonalLoop=1;jettySize=auto;html=1;exitX=1;exitY=1;exitDx=0;exitDy=0;exitPerimeter=0;entryX=1;entryY=0;entryDx=0;entryDy=0;entryPerimeter=0;" edge="1" parent="1" source="ENa72j89gGyk0aKRsWgS-32" target="ENa72j89gGyk0aKRsWgS-28">
          <mxGeometry relative="1" as="geometry">
            <Array as="points">
              <mxPoint x="735" y="-170" />
              <mxPoint x="623" y="-170" />
            </Array>
          </mxGeometry>
        </mxCell>
        <mxCell id="ENa72j89gGyk0aKRsWgS-41" style="edgeStyle=orthogonalEdgeStyle;rounded=0;orthogonalLoop=1;jettySize=auto;html=1;exitX=1;exitY=1;exitDx=0;exitDy=0;exitPerimeter=0;entryX=1;entryY=0;entryDx=0;entryDy=0;entryPerimeter=0;" edge="1" parent="1" source="ENa72j89gGyk0aKRsWgS-28" target="ENa72j89gGyk0aKRsWgS-26">
          <mxGeometry relative="1" as="geometry" />
        </mxCell>
        <mxCell id="ENa72j89gGyk0aKRsWgS-43" style="edgeStyle=orthogonalEdgeStyle;rounded=0;orthogonalLoop=1;jettySize=auto;html=1;exitX=1;exitY=1;exitDx=0;exitDy=0;exitPerimeter=0;entryX=1;entryY=0;entryDx=0;entryDy=0;entryPerimeter=0;" edge="1" parent="1" source="ENa72j89gGyk0aKRsWgS-28" target="ENa72j89gGyk0aKRsWgS-27">
          <mxGeometry relative="1" as="geometry" />
        </mxCell>
        <mxCell id="ENa72j89gGyk0aKRsWgS-46" value="X1" style="text;html=1;align=center;verticalAlign=middle;resizable=0;points=[];autosize=1;strokeColor=none;fillColor=none;" vertex="1" parent="1">
          <mxGeometry x="355" y="425" width="40" height="30" as="geometry" />
        </mxCell>
        <mxCell id="ENa72j89gGyk0aKRsWgS-47" value="X2" style="text;html=1;align=center;verticalAlign=middle;resizable=0;points=[];autosize=1;strokeColor=none;fillColor=none;" vertex="1" parent="1">
          <mxGeometry x="360" y="568" width="40" height="30" as="geometry" />
        </mxCell>
        <mxCell id="ENa72j89gGyk0aKRsWgS-48" value="X3" style="text;html=1;align=center;verticalAlign=middle;resizable=0;points=[];autosize=1;strokeColor=none;fillColor=none;" vertex="1" parent="1">
          <mxGeometry x="355" y="725" width="40" height="30" as="geometry" />
        </mxCell>
        <mxCell id="ENa72j89gGyk0aKRsWgS-49" value="X4" style="text;html=1;align=center;verticalAlign=middle;resizable=0;points=[];autosize=1;strokeColor=none;fillColor=none;" vertex="1" parent="1">
          <mxGeometry x="490" y="565" width="40" height="30" as="geometry" />
        </mxCell>
        <mxCell id="ENa72j89gGyk0aKRsWgS-50" value="X5" style="text;html=1;align=center;verticalAlign=middle;resizable=0;points=[];autosize=1;strokeColor=none;fillColor=none;" vertex="1" parent="1">
          <mxGeometry x="660" y="445" width="40" height="30" as="geometry" />
        </mxCell>
        <mxCell id="ENa72j89gGyk0aKRsWgS-51" value="X6" style="text;html=1;align=center;verticalAlign=middle;resizable=0;points=[];autosize=1;strokeColor=none;fillColor=none;" vertex="1" parent="1">
          <mxGeometry x="660" y="720" width="40" height="30" as="geometry" />
        </mxCell>
        <mxCell id="ENa72j89gGyk0aKRsWgS-52" value="X7" style="text;html=1;align=center;verticalAlign=middle;resizable=0;points=[];autosize=1;strokeColor=none;fillColor=none;" vertex="1" parent="1">
          <mxGeometry x="490" y="925" width="40" height="30" as="geometry" />
        </mxCell>
        <mxCell id="ENa72j89gGyk0aKRsWgS-53" value="X1" style="text;html=1;align=center;verticalAlign=middle;resizable=0;points=[];autosize=1;strokeColor=none;fillColor=none;" vertex="1" parent="1">
          <mxGeometry x="320" y="-295" width="40" height="30" as="geometry" />
        </mxCell>
        <mxCell id="ENa72j89gGyk0aKRsWgS-54" value="X2" style="text;html=1;align=center;verticalAlign=middle;resizable=0;points=[];autosize=1;strokeColor=none;fillColor=none;" vertex="1" parent="1">
          <mxGeometry x="515" y="-295" width="40" height="30" as="geometry" />
        </mxCell>
        <mxCell id="ENa72j89gGyk0aKRsWgS-55" value="X3" style="text;html=1;align=center;verticalAlign=middle;resizable=0;points=[];autosize=1;strokeColor=none;fillColor=none;" vertex="1" parent="1">
          <mxGeometry x="635" y="-295" width="40" height="30" as="geometry" />
        </mxCell>
        <mxCell id="ENa72j89gGyk0aKRsWgS-56" value="X4" style="text;html=1;align=center;verticalAlign=middle;resizable=0;points=[];autosize=1;strokeColor=none;fillColor=none;" vertex="1" parent="1">
          <mxGeometry x="522.5" y="25" width="40" height="30" as="geometry" />
        </mxCell>
        <mxCell id="ENa72j89gGyk0aKRsWgS-57" value="X5" style="text;html=1;align=center;verticalAlign=middle;resizable=0;points=[];autosize=1;strokeColor=none;fillColor=none;" vertex="1" parent="1">
          <mxGeometry x="440" y="190" width="40" height="30" as="geometry" />
        </mxCell>
        <mxCell id="ENa72j89gGyk0aKRsWgS-58" value="X6" style="text;html=1;align=center;verticalAlign=middle;resizable=0;points=[];autosize=1;strokeColor=none;fillColor=none;" vertex="1" parent="1">
          <mxGeometry x="575" y="195" width="40" height="30" as="geometry" />
        </mxCell>
        <mxCell id="ENa72j89gGyk0aKRsWgS-59" value="X7" style="text;html=1;align=center;verticalAlign=middle;resizable=0;points=[];autosize=1;strokeColor=none;fillColor=none;" vertex="1" parent="1">
          <mxGeometry x="780" y="25" width="40" height="30" as="geometry" />
        </mxCell>
        <mxCell id="ENa72j89gGyk0aKRsWgS-60" value="" style="endArrow=none;html=1;rounded=0;" edge="1" parent="1">
          <mxGeometry width="50" height="50" relative="1" as="geometry">
            <mxPoint x="880" y="330" as="sourcePoint" />
            <mxPoint x="970" y="330" as="targetPoint" />
          </mxGeometry>
        </mxCell>
        <mxCell id="ENa72j89gGyk0aKRsWgS-61" value="Y" style="text;html=1;align=center;verticalAlign=middle;resizable=0;points=[];autosize=1;strokeColor=none;fillColor=none;" vertex="1" parent="1">
          <mxGeometry x="965" y="318" width="30" height="30" as="geometry" />
        </mxCell>
      </root>
    </mxGraphModel>
  </diagram>
  <diagram id="iFcxkiP0HPk5DrN_NrIn" name="Page-2">
    <mxGraphModel dx="1434" dy="844" grid="1" gridSize="10" guides="1" tooltips="1" connect="1" arrows="1" fold="1" page="1" pageScale="1" pageWidth="850" pageHeight="1100" math="0" shadow="0">
      <root>
        <mxCell id="0" />
        <mxCell id="1" parent="0" />
        <mxCell id="K56EDej1HlDPL9AwCAyI-5" style="edgeStyle=orthogonalEdgeStyle;rounded=0;orthogonalLoop=1;jettySize=auto;html=1;exitX=0.5;exitY=1;exitDx=0;exitDy=0;" edge="1" parent="1" source="K56EDej1HlDPL9AwCAyI-1" target="K56EDej1HlDPL9AwCAyI-2">
          <mxGeometry relative="1" as="geometry" />
        </mxCell>
        <mxCell id="K56EDej1HlDPL9AwCAyI-6" value="x2" style="edgeLabel;html=1;align=center;verticalAlign=middle;resizable=0;points=[];" vertex="1" connectable="0" parent="K56EDej1HlDPL9AwCAyI-5">
          <mxGeometry y="-2" relative="1" as="geometry">
            <mxPoint as="offset" />
          </mxGeometry>
        </mxCell>
        <mxCell id="K56EDej1HlDPL9AwCAyI-11" style="edgeStyle=orthogonalEdgeStyle;rounded=0;orthogonalLoop=1;jettySize=auto;html=1;exitX=1;exitY=0.5;exitDx=0;exitDy=0;entryX=1;entryY=0.5;entryDx=0;entryDy=0;" edge="1" parent="1" source="K56EDej1HlDPL9AwCAyI-1" target="K56EDej1HlDPL9AwCAyI-4">
          <mxGeometry relative="1" as="geometry">
            <Array as="points">
              <mxPoint x="450" y="100" />
              <mxPoint x="450" y="520" />
            </Array>
          </mxGeometry>
        </mxCell>
        <mxCell id="K56EDej1HlDPL9AwCAyI-12" value="x7" style="edgeLabel;html=1;align=center;verticalAlign=middle;resizable=0;points=[];" vertex="1" connectable="0" parent="K56EDej1HlDPL9AwCAyI-11">
          <mxGeometry x="0.0038" y="2" relative="1" as="geometry">
            <mxPoint as="offset" />
          </mxGeometry>
        </mxCell>
        <mxCell id="K56EDej1HlDPL9AwCAyI-1" value="1" style="ellipse;whiteSpace=wrap;html=1;aspect=fixed;" vertex="1" parent="1">
          <mxGeometry x="360" y="80" width="40" height="40" as="geometry" />
        </mxCell>
        <mxCell id="K56EDej1HlDPL9AwCAyI-7" style="edgeStyle=orthogonalEdgeStyle;rounded=0;orthogonalLoop=1;jettySize=auto;html=1;exitX=0;exitY=0;exitDx=0;exitDy=0;entryX=0;entryY=1;entryDx=0;entryDy=0;" edge="1" parent="1" source="K56EDej1HlDPL9AwCAyI-2" target="K56EDej1HlDPL9AwCAyI-1">
          <mxGeometry relative="1" as="geometry">
            <Array as="points">
              <mxPoint x="350" y="246" />
              <mxPoint x="350" y="114" />
            </Array>
          </mxGeometry>
        </mxCell>
        <mxCell id="K56EDej1HlDPL9AwCAyI-8" value="x1" style="edgeLabel;html=1;align=center;verticalAlign=middle;resizable=0;points=[];" vertex="1" connectable="0" parent="K56EDej1HlDPL9AwCAyI-7">
          <mxGeometry x="0.0607" relative="1" as="geometry">
            <mxPoint as="offset" />
          </mxGeometry>
        </mxCell>
        <mxCell id="K56EDej1HlDPL9AwCAyI-9" style="edgeStyle=orthogonalEdgeStyle;rounded=0;orthogonalLoop=1;jettySize=auto;html=1;exitX=1;exitY=0;exitDx=0;exitDy=0;entryX=1;entryY=1;entryDx=0;entryDy=0;" edge="1" parent="1" source="K56EDej1HlDPL9AwCAyI-2" target="K56EDej1HlDPL9AwCAyI-1">
          <mxGeometry relative="1" as="geometry">
            <Array as="points">
              <mxPoint x="410" y="246" />
              <mxPoint x="410" y="114" />
            </Array>
          </mxGeometry>
        </mxCell>
        <mxCell id="K56EDej1HlDPL9AwCAyI-10" value="x3" style="edgeLabel;html=1;align=center;verticalAlign=middle;resizable=0;points=[];" vertex="1" connectable="0" parent="K56EDej1HlDPL9AwCAyI-9">
          <mxGeometry x="0.0734" y="3" relative="1" as="geometry">
            <mxPoint as="offset" />
          </mxGeometry>
        </mxCell>
        <mxCell id="K56EDej1HlDPL9AwCAyI-2" value="2" style="ellipse;whiteSpace=wrap;html=1;aspect=fixed;" vertex="1" parent="1">
          <mxGeometry x="360" y="240" width="40" height="40" as="geometry" />
        </mxCell>
        <mxCell id="K56EDej1HlDPL9AwCAyI-13" style="edgeStyle=orthogonalEdgeStyle;rounded=0;orthogonalLoop=1;jettySize=auto;html=1;exitX=0.5;exitY=0;exitDx=0;exitDy=0;entryX=0.5;entryY=1;entryDx=0;entryDy=0;" edge="1" parent="1" source="K56EDej1HlDPL9AwCAyI-3" target="K56EDej1HlDPL9AwCAyI-2">
          <mxGeometry relative="1" as="geometry" />
        </mxCell>
        <mxCell id="K56EDej1HlDPL9AwCAyI-14" value="x4" style="edgeLabel;html=1;align=center;verticalAlign=middle;resizable=0;points=[];" vertex="1" connectable="0" parent="K56EDej1HlDPL9AwCAyI-13">
          <mxGeometry x="-0.08" y="-5" relative="1" as="geometry">
            <mxPoint as="offset" />
          </mxGeometry>
        </mxCell>
        <mxCell id="K56EDej1HlDPL9AwCAyI-15" style="edgeStyle=orthogonalEdgeStyle;rounded=0;orthogonalLoop=1;jettySize=auto;html=1;exitX=0;exitY=1;exitDx=0;exitDy=0;entryX=0;entryY=0;entryDx=0;entryDy=0;" edge="1" parent="1" source="K56EDej1HlDPL9AwCAyI-3" target="K56EDej1HlDPL9AwCAyI-4">
          <mxGeometry relative="1" as="geometry" />
        </mxCell>
        <mxCell id="K56EDej1HlDPL9AwCAyI-16" value="x5" style="edgeLabel;html=1;align=center;verticalAlign=middle;resizable=0;points=[];" vertex="1" connectable="0" parent="K56EDej1HlDPL9AwCAyI-15">
          <mxGeometry x="0.0436" y="1" relative="1" as="geometry">
            <mxPoint as="offset" />
          </mxGeometry>
        </mxCell>
        <mxCell id="K56EDej1HlDPL9AwCAyI-3" value="3(Start)" style="ellipse;whiteSpace=wrap;html=1;aspect=fixed;" vertex="1" parent="1">
          <mxGeometry x="360" y="380" width="40" height="40" as="geometry" />
        </mxCell>
        <mxCell id="K56EDej1HlDPL9AwCAyI-17" style="edgeStyle=orthogonalEdgeStyle;rounded=0;orthogonalLoop=1;jettySize=auto;html=1;exitX=1;exitY=0;exitDx=0;exitDy=0;entryX=1;entryY=1;entryDx=0;entryDy=0;" edge="1" parent="1" source="K56EDej1HlDPL9AwCAyI-4" target="K56EDej1HlDPL9AwCAyI-3">
          <mxGeometry relative="1" as="geometry" />
        </mxCell>
        <mxCell id="K56EDej1HlDPL9AwCAyI-18" value="x6" style="edgeLabel;html=1;align=center;verticalAlign=middle;resizable=0;points=[];" vertex="1" connectable="0" parent="K56EDej1HlDPL9AwCAyI-17">
          <mxGeometry y="5" relative="1" as="geometry">
            <mxPoint as="offset" />
          </mxGeometry>
        </mxCell>
        <mxCell id="K56EDej1HlDPL9AwCAyI-4" value="4(Stop)" style="ellipse;whiteSpace=wrap;html=1;aspect=fixed;" vertex="1" parent="1">
          <mxGeometry x="360" y="500" width="40" height="40" as="geometry" />
        </mxCell>
        <mxCell id="K56EDej1HlDPL9AwCAyI-19" value="PMOS Network Graph" style="text;html=1;align=center;verticalAlign=middle;resizable=0;points=[];autosize=1;strokeColor=none;fillColor=none;" vertex="1" parent="1">
          <mxGeometry x="310" y="568" width="140" height="30" as="geometry" />
        </mxCell>
        <mxCell id="K56EDej1HlDPL9AwCAyI-27" style="edgeStyle=orthogonalEdgeStyle;rounded=0;orthogonalLoop=1;jettySize=auto;html=1;exitX=0;exitY=1;exitDx=0;exitDy=0;entryX=0.5;entryY=0;entryDx=0;entryDy=0;" edge="1" parent="1" source="K56EDej1HlDPL9AwCAyI-21" target="K56EDej1HlDPL9AwCAyI-22">
          <mxGeometry relative="1" as="geometry" />
        </mxCell>
        <mxCell id="K56EDej1HlDPL9AwCAyI-28" value="x1" style="edgeLabel;html=1;align=center;verticalAlign=middle;resizable=0;points=[];" vertex="1" connectable="0" parent="K56EDej1HlDPL9AwCAyI-27">
          <mxGeometry x="0.0547" relative="1" as="geometry">
            <mxPoint as="offset" />
          </mxGeometry>
        </mxCell>
        <mxCell id="K56EDej1HlDPL9AwCAyI-29" style="edgeStyle=orthogonalEdgeStyle;rounded=0;orthogonalLoop=1;jettySize=auto;html=1;exitX=1;exitY=1;exitDx=0;exitDy=0;entryX=0.5;entryY=0;entryDx=0;entryDy=0;" edge="1" parent="1" source="K56EDej1HlDPL9AwCAyI-21" target="K56EDej1HlDPL9AwCAyI-24">
          <mxGeometry relative="1" as="geometry" />
        </mxCell>
        <mxCell id="K56EDej1HlDPL9AwCAyI-30" value="x5" style="edgeLabel;html=1;align=center;verticalAlign=middle;resizable=0;points=[];" vertex="1" connectable="0" parent="K56EDej1HlDPL9AwCAyI-29">
          <mxGeometry x="0.1137" y="-4" relative="1" as="geometry">
            <mxPoint as="offset" />
          </mxGeometry>
        </mxCell>
        <mxCell id="K56EDej1HlDPL9AwCAyI-21" value="4(Start)" style="ellipse;whiteSpace=wrap;html=1;aspect=fixed;" vertex="1" parent="1">
          <mxGeometry x="360" y="650" width="40" height="40" as="geometry" />
        </mxCell>
        <mxCell id="K56EDej1HlDPL9AwCAyI-33" style="edgeStyle=orthogonalEdgeStyle;rounded=0;orthogonalLoop=1;jettySize=auto;html=1;exitX=0.5;exitY=1;exitDx=0;exitDy=0;" edge="1" parent="1" source="K56EDej1HlDPL9AwCAyI-22" target="K56EDej1HlDPL9AwCAyI-23">
          <mxGeometry relative="1" as="geometry" />
        </mxCell>
        <mxCell id="K56EDej1HlDPL9AwCAyI-34" value="x2" style="edgeLabel;html=1;align=center;verticalAlign=middle;resizable=0;points=[];" vertex="1" connectable="0" parent="K56EDej1HlDPL9AwCAyI-33">
          <mxGeometry x="-0.2889" y="4" relative="1" as="geometry">
            <mxPoint as="offset" />
          </mxGeometry>
        </mxCell>
        <mxCell id="K56EDej1HlDPL9AwCAyI-22" value="5" style="ellipse;whiteSpace=wrap;html=1;aspect=fixed;" vertex="1" parent="1">
          <mxGeometry x="280" y="760" width="40" height="40" as="geometry" />
        </mxCell>
        <mxCell id="K56EDej1HlDPL9AwCAyI-35" style="edgeStyle=orthogonalEdgeStyle;rounded=0;orthogonalLoop=1;jettySize=auto;html=1;exitX=1;exitY=1;exitDx=0;exitDy=0;entryX=0;entryY=0;entryDx=0;entryDy=0;" edge="1" parent="1" source="K56EDej1HlDPL9AwCAyI-23" target="K56EDej1HlDPL9AwCAyI-25">
          <mxGeometry relative="1" as="geometry">
            <Array as="points">
              <mxPoint x="314" y="990" />
              <mxPoint x="366" y="990" />
            </Array>
          </mxGeometry>
        </mxCell>
        <mxCell id="K56EDej1HlDPL9AwCAyI-36" value="x3" style="edgeLabel;html=1;align=center;verticalAlign=middle;resizable=0;points=[];" vertex="1" connectable="0" parent="K56EDej1HlDPL9AwCAyI-35">
          <mxGeometry x="0.34" y="2" relative="1" as="geometry">
            <mxPoint as="offset" />
          </mxGeometry>
        </mxCell>
        <mxCell id="K56EDej1HlDPL9AwCAyI-23" value="6" style="ellipse;whiteSpace=wrap;html=1;aspect=fixed;" vertex="1" parent="1">
          <mxGeometry x="280" y="890" width="40" height="40" as="geometry" />
        </mxCell>
        <mxCell id="K56EDej1HlDPL9AwCAyI-24" value="7" style="ellipse;whiteSpace=wrap;html=1;aspect=fixed;" vertex="1" parent="1">
          <mxGeometry x="490" y="830" width="40" height="40" as="geometry" />
        </mxCell>
        <mxCell id="K56EDej1HlDPL9AwCAyI-31" style="edgeStyle=orthogonalEdgeStyle;rounded=0;orthogonalLoop=1;jettySize=auto;html=1;exitX=0.5;exitY=0;exitDx=0;exitDy=0;entryX=0.5;entryY=1;entryDx=0;entryDy=0;" edge="1" parent="1" source="K56EDej1HlDPL9AwCAyI-25" target="K56EDej1HlDPL9AwCAyI-21">
          <mxGeometry relative="1" as="geometry" />
        </mxCell>
        <mxCell id="K56EDej1HlDPL9AwCAyI-32" value="x4" style="edgeLabel;html=1;align=center;verticalAlign=middle;resizable=0;points=[];" vertex="1" connectable="0" parent="K56EDej1HlDPL9AwCAyI-31">
          <mxGeometry x="0.12" y="-4" relative="1" as="geometry">
            <mxPoint as="offset" />
          </mxGeometry>
        </mxCell>
        <mxCell id="K56EDej1HlDPL9AwCAyI-42" style="edgeStyle=orthogonalEdgeStyle;rounded=0;orthogonalLoop=1;jettySize=auto;html=1;exitX=0.5;exitY=1;exitDx=0;exitDy=0;entryX=0.5;entryY=0;entryDx=0;entryDy=0;" edge="1" parent="1" source="K56EDej1HlDPL9AwCAyI-25" target="K56EDej1HlDPL9AwCAyI-26">
          <mxGeometry relative="1" as="geometry" />
        </mxCell>
        <mxCell id="K56EDej1HlDPL9AwCAyI-43" value="x7" style="edgeLabel;html=1;align=center;verticalAlign=middle;resizable=0;points=[];" vertex="1" connectable="0" parent="K56EDej1HlDPL9AwCAyI-42">
          <mxGeometry x="-0.32" y="3" relative="1" as="geometry">
            <mxPoint as="offset" />
          </mxGeometry>
        </mxCell>
        <mxCell id="K56EDej1HlDPL9AwCAyI-25" value="8" style="ellipse;whiteSpace=wrap;html=1;aspect=fixed;" vertex="1" parent="1">
          <mxGeometry x="360" y="990" width="40" height="40" as="geometry" />
        </mxCell>
        <mxCell id="K56EDej1HlDPL9AwCAyI-26" value="9(stop)" style="ellipse;whiteSpace=wrap;html=1;aspect=fixed;" vertex="1" parent="1">
          <mxGeometry x="360" y="1080" width="40" height="40" as="geometry" />
        </mxCell>
        <mxCell id="K56EDej1HlDPL9AwCAyI-37" style="edgeStyle=orthogonalEdgeStyle;rounded=0;orthogonalLoop=1;jettySize=auto;html=1;exitX=0.5;exitY=1;exitDx=0;exitDy=0;entryX=1;entryY=0.325;entryDx=0;entryDy=0;entryPerimeter=0;" edge="1" parent="1" source="K56EDej1HlDPL9AwCAyI-24" target="K56EDej1HlDPL9AwCAyI-25">
          <mxGeometry relative="1" as="geometry" />
        </mxCell>
        <mxCell id="K56EDej1HlDPL9AwCAyI-38" value="x6" style="edgeLabel;html=1;align=center;verticalAlign=middle;resizable=0;points=[];" vertex="1" connectable="0" parent="K56EDej1HlDPL9AwCAyI-37">
          <mxGeometry x="-0.2099" y="2" relative="1" as="geometry">
            <mxPoint as="offset" />
          </mxGeometry>
        </mxCell>
        <mxCell id="K56EDej1HlDPL9AwCAyI-44" value="NMOS Network Graph" style="text;html=1;align=center;verticalAlign=middle;resizable=0;points=[];autosize=1;strokeColor=none;fillColor=none;" vertex="1" parent="1">
          <mxGeometry x="310" y="1150" width="140" height="30" as="geometry" />
        </mxCell>
      </root>
    </mxGraphModel>
  </diagram>
  <diagram id="i--wEvr2FhkzXj9x2pS1" name="Page-3">
    <mxGraphModel dx="1434" dy="844" grid="1" gridSize="10" guides="1" tooltips="1" connect="1" arrows="1" fold="1" page="1" pageScale="1" pageWidth="850" pageHeight="1100" math="0" shadow="0">
      <root>
        <mxCell id="0" />
        <mxCell id="1" parent="0" />
        <mxCell id="Qy2eK0ANnrsOSj5PdRS9-1" value="VDD" style="rounded=0;whiteSpace=wrap;html=1;" vertex="1" parent="1">
          <mxGeometry x="70" y="110" width="655" height="20" as="geometry" />
        </mxCell>
        <mxCell id="Qy2eK0ANnrsOSj5PdRS9-2" value="" style="rounded=0;whiteSpace=wrap;html=1;strokeColor=#5EFF79;fillColor=#57E9FF;" vertex="1" parent="1">
          <mxGeometry x="70" y="230" width="680" height="60" as="geometry" />
        </mxCell>
        <mxCell id="Qy2eK0ANnrsOSj5PdRS9-3" value="" style="rounded=0;whiteSpace=wrap;html=1;strokeColor=#5EFF79;fillColor=#57E9FF;" vertex="1" parent="1">
          <mxGeometry x="65" y="400" width="680" height="60" as="geometry" />
        </mxCell>
        <mxCell id="Qy2eK0ANnrsOSj5PdRS9-4" value="GND" style="rounded=0;whiteSpace=wrap;html=1;" vertex="1" parent="1">
          <mxGeometry x="70" y="540" width="665" height="20" as="geometry" />
        </mxCell>
        <mxCell id="Qy2eK0ANnrsOSj5PdRS9-12" value="&amp;nbsp; &amp;nbsp; &amp;nbsp; &amp;nbsp; &amp;nbsp; &amp;nbsp; &amp;nbsp; &amp;nbsp; &amp;nbsp; &amp;nbsp; &amp;nbsp; &amp;nbsp; &amp;nbsp; &amp;nbsp; &amp;nbsp; &amp;nbsp; &amp;nbsp; &amp;nbsp; &amp;nbsp; &amp;nbsp;" style="rounded=0;whiteSpace=wrap;html=1;" vertex="1" parent="1">
          <mxGeometry x="65" y="325" width="685" height="30" as="geometry" />
        </mxCell>
        <mxCell id="Qy2eK0ANnrsOSj5PdRS9-5" value="" style="rounded=0;whiteSpace=wrap;html=1;direction=south;fillColor=#FF4AE7;" vertex="1" parent="1">
          <mxGeometry x="160" y="90" width="20" height="590" as="geometry" />
        </mxCell>
        <mxCell id="Qy2eK0ANnrsOSj5PdRS9-6" value="" style="rounded=0;whiteSpace=wrap;html=1;direction=south;fillColor=#FF4AE7;" vertex="1" parent="1">
          <mxGeometry x="600" y="90" width="20" height="590" as="geometry" />
        </mxCell>
        <mxCell id="Qy2eK0ANnrsOSj5PdRS9-7" value="" style="rounded=0;whiteSpace=wrap;html=1;direction=south;fillColor=#FF4AE7;" vertex="1" parent="1">
          <mxGeometry x="330" y="90" width="20" height="590" as="geometry" />
        </mxCell>
        <mxCell id="Qy2eK0ANnrsOSj5PdRS9-8" value="" style="rounded=0;whiteSpace=wrap;html=1;direction=south;fillColor=#FF4AE7;" vertex="1" parent="1">
          <mxGeometry x="440" y="90" width="20" height="590" as="geometry" />
        </mxCell>
        <mxCell id="Qy2eK0ANnrsOSj5PdRS9-9" value="" style="rounded=0;whiteSpace=wrap;html=1;direction=south;fillColor=#FF4AE7;" vertex="1" parent="1">
          <mxGeometry x="520" y="90" width="20" height="590" as="geometry" />
        </mxCell>
        <mxCell id="Qy2eK0ANnrsOSj5PdRS9-10" value="" style="rounded=0;whiteSpace=wrap;html=1;direction=south;fillColor=#FF4AE7;" vertex="1" parent="1">
          <mxGeometry x="240" y="90" width="20" height="590" as="geometry" />
        </mxCell>
        <mxCell id="Qy2eK0ANnrsOSj5PdRS9-11" value="" style="rounded=0;whiteSpace=wrap;html=1;direction=south;fillColor=#FF4AE7;" vertex="1" parent="1">
          <mxGeometry x="670" y="90" width="20" height="590" as="geometry" />
        </mxCell>
        <mxCell id="Qy2eK0ANnrsOSj5PdRS9-13" value="OUT" style="text;html=1;strokeColor=none;fillColor=none;align=center;verticalAlign=middle;whiteSpace=wrap;rounded=0;" vertex="1" parent="1">
          <mxGeometry x="680" y="325" width="60" height="30" as="geometry" />
        </mxCell>
        <mxCell id="Qy2eK0ANnrsOSj5PdRS9-14" value="S" style="text;html=1;strokeColor=none;fillColor=none;align=center;verticalAlign=middle;whiteSpace=wrap;rounded=0;" vertex="1" parent="1">
          <mxGeometry x="120" y="270" width="60" height="30" as="geometry" />
        </mxCell>
        <mxCell id="Qy2eK0ANnrsOSj5PdRS9-15" value="S" style="text;html=1;strokeColor=none;fillColor=none;align=center;verticalAlign=middle;whiteSpace=wrap;rounded=0;" vertex="1" parent="1">
          <mxGeometry x="250" y="270" width="60" height="30" as="geometry" />
        </mxCell>
        <mxCell id="Qy2eK0ANnrsOSj5PdRS9-17" value="X1" style="text;html=1;strokeColor=none;fillColor=none;align=center;verticalAlign=middle;whiteSpace=wrap;rounded=0;" vertex="1" parent="1">
          <mxGeometry x="140" y="690" width="60" height="30" as="geometry" />
        </mxCell>
        <mxCell id="Qy2eK0ANnrsOSj5PdRS9-18" value="X2" style="text;html=1;strokeColor=none;fillColor=none;align=center;verticalAlign=middle;whiteSpace=wrap;rounded=0;" vertex="1" parent="1">
          <mxGeometry x="220" y="690" width="60" height="30" as="geometry" />
        </mxCell>
        <mxCell id="Qy2eK0ANnrsOSj5PdRS9-19" value="X3" style="text;html=1;strokeColor=none;fillColor=none;align=center;verticalAlign=middle;whiteSpace=wrap;rounded=0;" vertex="1" parent="1">
          <mxGeometry x="310" y="690" width="60" height="30" as="geometry" />
        </mxCell>
        <mxCell id="Qy2eK0ANnrsOSj5PdRS9-20" value="X4" style="text;html=1;strokeColor=none;fillColor=none;align=center;verticalAlign=middle;whiteSpace=wrap;rounded=0;" vertex="1" parent="1">
          <mxGeometry x="420" y="690" width="60" height="30" as="geometry" />
        </mxCell>
        <mxCell id="Qy2eK0ANnrsOSj5PdRS9-21" value="X5" style="text;html=1;strokeColor=none;fillColor=none;align=center;verticalAlign=middle;whiteSpace=wrap;rounded=0;" vertex="1" parent="1">
          <mxGeometry x="500" y="690" width="60" height="30" as="geometry" />
        </mxCell>
        <mxCell id="Qy2eK0ANnrsOSj5PdRS9-22" value="X6" style="text;html=1;strokeColor=none;fillColor=none;align=center;verticalAlign=middle;whiteSpace=wrap;rounded=0;" vertex="1" parent="1">
          <mxGeometry x="580" y="690" width="60" height="30" as="geometry" />
        </mxCell>
        <mxCell id="Qy2eK0ANnrsOSj5PdRS9-23" value="X7" style="text;html=1;strokeColor=none;fillColor=none;align=center;verticalAlign=middle;whiteSpace=wrap;rounded=0;" vertex="1" parent="1">
          <mxGeometry x="650" y="690" width="60" height="30" as="geometry" />
        </mxCell>
        <mxCell id="Qy2eK0ANnrsOSj5PdRS9-24" value="S" style="text;html=1;strokeColor=none;fillColor=none;align=center;verticalAlign=middle;whiteSpace=wrap;rounded=0;" vertex="1" parent="1">
          <mxGeometry x="450" y="260" width="60" height="30" as="geometry" />
        </mxCell>
        <mxCell id="Qy2eK0ANnrsOSj5PdRS9-25" value="S" style="text;html=1;strokeColor=none;fillColor=none;align=center;verticalAlign=middle;whiteSpace=wrap;rounded=0;" vertex="1" parent="1">
          <mxGeometry x="480" y="260" width="60" height="30" as="geometry" />
        </mxCell>
        <mxCell id="Qy2eK0ANnrsOSj5PdRS9-26" value="S" style="text;html=1;strokeColor=none;fillColor=none;align=center;verticalAlign=middle;whiteSpace=wrap;rounded=0;" vertex="1" parent="1">
          <mxGeometry x="330" y="270" width="60" height="30" as="geometry" />
        </mxCell>
        <mxCell id="Qy2eK0ANnrsOSj5PdRS9-27" value="S" style="text;html=1;strokeColor=none;fillColor=none;align=center;verticalAlign=middle;whiteSpace=wrap;rounded=0;" vertex="1" parent="1">
          <mxGeometry x="600" y="260" width="60" height="30" as="geometry" />
        </mxCell>
        <mxCell id="Qy2eK0ANnrsOSj5PdRS9-28" value="S" style="text;html=1;strokeColor=none;fillColor=none;align=center;verticalAlign=middle;whiteSpace=wrap;rounded=0;" vertex="1" parent="1">
          <mxGeometry x="620" y="260" width="60" height="30" as="geometry" />
        </mxCell>
        <mxCell id="Qy2eK0ANnrsOSj5PdRS9-29" value="S" style="text;html=1;strokeColor=none;fillColor=none;align=center;verticalAlign=middle;whiteSpace=wrap;rounded=0;" vertex="1" parent="1">
          <mxGeometry x="160" y="400" width="60" height="30" as="geometry" />
        </mxCell>
        <mxCell id="Qy2eK0ANnrsOSj5PdRS9-30" value="S" style="text;html=1;strokeColor=none;fillColor=none;align=center;verticalAlign=middle;whiteSpace=wrap;rounded=0;" vertex="1" parent="1">
          <mxGeometry x="240" y="400" width="60" height="30" as="geometry" />
        </mxCell>
        <mxCell id="Qy2eK0ANnrsOSj5PdRS9-31" value="S" style="text;html=1;strokeColor=none;fillColor=none;align=center;verticalAlign=middle;whiteSpace=wrap;rounded=0;" vertex="1" parent="1">
          <mxGeometry x="290" y="400" width="60" height="30" as="geometry" />
        </mxCell>
        <mxCell id="Qy2eK0ANnrsOSj5PdRS9-32" value="S" style="text;html=1;strokeColor=none;fillColor=none;align=center;verticalAlign=middle;whiteSpace=wrap;rounded=0;" vertex="1" parent="1">
          <mxGeometry x="440" y="400" width="60" height="30" as="geometry" />
        </mxCell>
        <mxCell id="Qy2eK0ANnrsOSj5PdRS9-33" value="S" style="text;html=1;strokeColor=none;fillColor=none;align=center;verticalAlign=middle;whiteSpace=wrap;rounded=0;" vertex="1" parent="1">
          <mxGeometry x="600" y="400" width="60" height="30" as="geometry" />
        </mxCell>
        <mxCell id="Qy2eK0ANnrsOSj5PdRS9-34" value="S" style="text;html=1;strokeColor=none;fillColor=none;align=center;verticalAlign=middle;whiteSpace=wrap;rounded=0;" vertex="1" parent="1">
          <mxGeometry x="520" y="400" width="60" height="30" as="geometry" />
        </mxCell>
        <mxCell id="Qy2eK0ANnrsOSj5PdRS9-35" value="S" style="text;html=1;strokeColor=none;fillColor=none;align=center;verticalAlign=middle;whiteSpace=wrap;rounded=0;" vertex="1" parent="1">
          <mxGeometry x="670" y="400" width="60" height="30" as="geometry" />
        </mxCell>
        <mxCell id="Qy2eK0ANnrsOSj5PdRS9-36" value="D" style="text;html=1;strokeColor=none;fillColor=none;align=center;verticalAlign=middle;whiteSpace=wrap;rounded=0;" vertex="1" parent="1">
          <mxGeometry x="160" y="270" width="60" height="30" as="geometry" />
        </mxCell>
        <mxCell id="Qy2eK0ANnrsOSj5PdRS9-39" value="D" style="text;html=1;strokeColor=none;fillColor=none;align=center;verticalAlign=middle;whiteSpace=wrap;rounded=0;" vertex="1" parent="1">
          <mxGeometry x="200" y="270" width="60" height="30" as="geometry" />
        </mxCell>
        <mxCell id="Qy2eK0ANnrsOSj5PdRS9-40" value="D" style="text;html=1;strokeColor=none;fillColor=none;align=center;verticalAlign=middle;whiteSpace=wrap;rounded=0;" vertex="1" parent="1">
          <mxGeometry x="290" y="270" width="60" height="30" as="geometry" />
        </mxCell>
        <mxCell id="Qy2eK0ANnrsOSj5PdRS9-41" value="D" style="text;html=1;strokeColor=none;fillColor=none;align=center;verticalAlign=middle;whiteSpace=wrap;rounded=0;" vertex="1" parent="1">
          <mxGeometry x="400" y="270" width="60" height="30" as="geometry" />
        </mxCell>
        <mxCell id="Qy2eK0ANnrsOSj5PdRS9-42" value="D" style="text;html=1;strokeColor=none;fillColor=none;align=center;verticalAlign=middle;whiteSpace=wrap;rounded=0;" vertex="1" parent="1">
          <mxGeometry x="520" y="270" width="60" height="30" as="geometry" />
        </mxCell>
        <mxCell id="Qy2eK0ANnrsOSj5PdRS9-43" value="D" style="text;html=1;strokeColor=none;fillColor=none;align=center;verticalAlign=middle;whiteSpace=wrap;rounded=0;" vertex="1" parent="1">
          <mxGeometry x="560" y="270" width="60" height="30" as="geometry" />
        </mxCell>
        <mxCell id="Qy2eK0ANnrsOSj5PdRS9-44" value="D" style="text;html=1;strokeColor=none;fillColor=none;align=center;verticalAlign=middle;whiteSpace=wrap;rounded=0;" vertex="1" parent="1">
          <mxGeometry x="670" y="270" width="60" height="30" as="geometry" />
        </mxCell>
        <mxCell id="Qy2eK0ANnrsOSj5PdRS9-45" value="D" style="text;html=1;strokeColor=none;fillColor=none;align=center;verticalAlign=middle;whiteSpace=wrap;rounded=0;" vertex="1" parent="1">
          <mxGeometry x="120" y="390" width="60" height="30" as="geometry" />
        </mxCell>
        <mxCell id="Qy2eK0ANnrsOSj5PdRS9-46" value="D" style="text;html=1;strokeColor=none;fillColor=none;align=center;verticalAlign=middle;whiteSpace=wrap;rounded=0;" vertex="1" parent="1">
          <mxGeometry x="200" y="390" width="60" height="30" as="geometry" />
        </mxCell>
        <mxCell id="Qy2eK0ANnrsOSj5PdRS9-47" value="D" style="text;html=1;strokeColor=none;fillColor=none;align=center;verticalAlign=middle;whiteSpace=wrap;rounded=0;" vertex="1" parent="1">
          <mxGeometry x="330" y="390" width="60" height="30" as="geometry" />
        </mxCell>
        <mxCell id="Qy2eK0ANnrsOSj5PdRS9-48" value="D" style="text;html=1;strokeColor=none;fillColor=none;align=center;verticalAlign=middle;whiteSpace=wrap;rounded=0;" vertex="1" parent="1">
          <mxGeometry x="395" y="390" width="60" height="30" as="geometry" />
        </mxCell>
        <mxCell id="Qy2eK0ANnrsOSj5PdRS9-49" value="D" style="text;html=1;strokeColor=none;fillColor=none;align=center;verticalAlign=middle;whiteSpace=wrap;rounded=0;" vertex="1" parent="1">
          <mxGeometry x="480" y="390" width="60" height="30" as="geometry" />
        </mxCell>
        <mxCell id="Qy2eK0ANnrsOSj5PdRS9-50" value="D" style="text;html=1;strokeColor=none;fillColor=none;align=center;verticalAlign=middle;whiteSpace=wrap;rounded=0;" vertex="1" parent="1">
          <mxGeometry x="560" y="390" width="60" height="30" as="geometry" />
        </mxCell>
        <mxCell id="Qy2eK0ANnrsOSj5PdRS9-51" value="D" style="text;html=1;strokeColor=none;fillColor=none;align=center;verticalAlign=middle;whiteSpace=wrap;rounded=0;" vertex="1" parent="1">
          <mxGeometry x="630" y="390" width="60" height="30" as="geometry" />
        </mxCell>
        <mxCell id="Qy2eK0ANnrsOSj5PdRS9-52" value="PMOS" style="text;html=1;strokeColor=none;fillColor=none;align=center;verticalAlign=middle;whiteSpace=wrap;rounded=0;" vertex="1" parent="1">
          <mxGeometry x="690" y="230" width="60" height="30" as="geometry" />
        </mxCell>
        <mxCell id="Qy2eK0ANnrsOSj5PdRS9-53" value="NMOS" style="text;html=1;strokeColor=none;fillColor=none;align=center;verticalAlign=middle;whiteSpace=wrap;rounded=0;" vertex="1" parent="1">
          <mxGeometry x="685" y="430" width="60" height="30" as="geometry" />
        </mxCell>
      </root>
    </mxGraphModel>
  </diagram>
</mxfile>
